<?xml version="1.0"?>
<svg xmlns="http://www.w3.org/2000/svg" viewBox="0 0 512 226.1" width="475.866025396" height="210.143180356">
<style type="text/css">
	.st0{fill:#034EA1;}
	.st1{fill:#EC1C24;}
	.st2{fill:#231F20;}
</style>
 <polygon class="st0" points="512,0 317,0 317,165.7 360.6,165.7 360.6,37.1 392.3,37.1 392.5,165.7 436.1,165.7 436.1,37.1  468.4,37.1 468.4,165.7 512,165.7"/>
 <polygon class="st0" points="307.8,165.7 265.8,165.7 259.7,165.7 259.7,0 265.8,0 307.8,0"/>
 <rect y="0" class="st1" width="115.8" height="38.1"/>
 <rect y="65.2" class="st1" width="109" height="38.1"/>
 <rect y="127.8" class="st1" width="116" height="37.9"/>
 <polygon class="st1" points="106.8,0 156.4,0 187.4,47.2 218.1,0 265.7,0 212,84 265.7,165.7 213.6,165.7 186.7,123.9 160.1,165.7 110.2,165.7 162.3,85.8"/>
 <polygon class="st2" points="21,184.5 21,226.1 15.4,226.1 15.4,184.5 0,184.5 0,179.7 36.3,179.7 36.3,184.5"/>
 <polygon class="st2" points="72.6,226.1 72.6,204.7 48,204.7 48,226.1 42.4,226.1 42.4,179.7 48,179.7 48,199.8 72.6,199.8 72.6,179.7 78.2,179.7 78.2,226.1"/>
 <path class="st2" d="M118.3,226.1l-4.9-14.3H95.2l-5.2,14.3H84l16.9-46.5h7.5l16.2,46.5H118.3z M104.8,185.2l-8,22h14.8 L104.8,185.2z"/>
 <rect x="131.7" y="179.7" class="st2" width="5.6" height="46.5"/>
 <polygon class="st2" points="147.4,226.1 147.4,179.7 153,179.7 153,221.1 176.2,221.1 176.2,226.1"/>
 <path class="st2" d="M213,226.1l-4.9-14.3h-18.2l-5.3,14.3h-5.9l16.8-46.5h7.6l16.2,46.5H213z M199.4,185.2l-8,22h14.8 L199.4,185.2z"/>
 <polygon class="st2" points="254.5,226.1 229.9,187.5 229.9,226.1 224.5,226.1 224.5,179.7 231.1,179.7 255.4,218.6 255.4,179.7 261,179.7 261,226.1"/>
 <path class="st2" d="M307.5,198.6c0.4,4.2,0.2,8-0.5,11.5c-0.7,3.5-2.1,6.5-4.2,9.1c-2,2.5-4,4.3-6,5.4c-2,1.1-3.5,1.6-4.7,1.6 h-21.2v-46.5h17.9c5,0,9.2,1.6,12.6,4.9C304.9,187.9,307,192.5,307.5,198.6 M302.2,203.1c0.1-2.4-0.1-4.7-0.6-6.9 c-0.5-2.2-1.3-4.2-2.4-6c-1.1-1.7-2.5-3.1-4.3-4.1c-1.8-1-4-1.5-6.6-1.5h-11.8v36.8H290c0.9,0,1.7-0.1,2.4-0.2 c0.8-0.1,1.6-0.4,2.6-0.8c1.8-0.9,3.5-2.8,4.9-5.8C301.3,211.5,302.1,207.7,302.2,203.1"/>
</svg>